<svg xmlns="http://www.w3.org/2000/svg" viewBox="0 0 43.83 39.06"><defs><style>.cls-1{fill:#2fac66;}</style></defs><g id="Lag_2" data-name="Lag 2"><g id="Lag_2-2" data-name="Lag 2"><rect class="cls-1" x="32.6" y="21.91" width="8.15" height="17.15" rx="1.53"/><rect class="cls-1" x="3.08" y="21.91" width="8.15" height="17.15" rx="1.54"/><path class="cls-1" d="M42.24,17.91a3,3,0,0,0-3-3.06H4.58a3,3,0,0,0-3,3.06L0,29.29a3,3,0,0,0,3,3.05H40.84a3,3,0,0,0,3-3.05ZM6.16,19.78h-.4a1.59,1.59,0,1,1,0-3.18h.4a1.59,1.59,0,1,1,0,3.18Zm22.34,8.3a1.11,1.11,0,0,1-1.11,1.11H16.44a1.11,1.11,0,0,1-1.11-1.11v-1A1.11,1.11,0,0,1,16.44,26h11a1.11,1.11,0,0,1,1.11,1.11Zm9.57-8.3h-.4a1.59,1.59,0,0,1,0-3.18h.4a1.59,1.59,0,0,1,0,3.18Z"/><path class="cls-1" d="M6.73,15.51l1-10.18c.14-1.48,1-2.58,2.07-2.58H34.06c1,0,1.93,1.1,2.07,2.58l1,10.18h3L38.7,2.69A2.74,2.74,0,0,0,36.25,0H7.58A2.74,2.74,0,0,0,5.14,2.69L3.76,15.51Z"/></g></g></svg>