<?xml version="1.0" encoding="UTF-8"?><svg xmlns="http://www.w3.org/2000/svg" viewBox="0 0 257.91 86.95"><defs><style>.k{fill:#2fac66;}.l{fill:#62b785;}</style></defs><g id="a"/><g id="b"><g id="c"><g><rect class="k" x="54.04" y="44.29" width="8.15" height="17.15" rx="1.53" ry="1.53"/><rect class="k" x="24.52" y="44.29" width="8.15" height="17.15" rx="1.54" ry="1.54"/><path class="k" d="M63.68,40.29c0-1.69-1.34-3.05-2.99-3.05H26.02c-1.65,0-2.99,1.37-2.99,3.05l-1.59,11.38c0,1.69,1.34,3.05,2.99,3.05H62.28c1.65,0,2.99-1.37,2.99-3.05l-1.59-11.38Zm-36.08,1.87h-.4c-.88,0-1.59-.71-1.59-1.59s.71-1.59,1.59-1.59h.4c.88,0,1.59,.71,1.59,1.59s-.71,1.59-1.59,1.59Zm22.34,8.3c0,.61-.5,1.11-1.11,1.11h-10.94c-.61,0-1.11-.5-1.11-1.11v-.95c0-.61,.5-1.11,1.11-1.11h10.94c.61,0,1.11,.5,1.11,1.11v.95Zm9.58-8.3h-.4c-.88,0-1.59-.71-1.59-1.59s.71-1.59,1.59-1.59h.4c.88,0,1.59,.71,1.59,1.59s-.71,1.59-1.59,1.59Z"/><path class="k" d="M28.17,37.9l.97-10.18c.14-1.48,1.02-2.58,2.07-2.58h24.29c1.05,0,1.93,1.1,2.07,2.58l.97,10.18h2.97l-1.38-12.82c-.17-1.54-1.21-2.69-2.44-2.69H29.02c-1.23,0-2.28,1.15-2.44,2.69l-1.38,12.82h2.97Z"/></g><g><g id="d"><path class="l" d="M74.48,72.78l-4.4-9.63c-.37-.81-1.44-1-2.07-.37l-5.23,5.23c-.63,.63-.44,1.7,.37,2.07l9.63,4.4c1.08,.49,2.19-.62,1.7-1.7Z"/></g><g id="e"><path class="l" d="M44.68,86.12l3.7-9.92c.31-.84-.31-1.73-1.2-1.73h-7.39c-.89,0-1.51,.89-1.2,1.73l3.7,9.92c.41,1.11,1.99,1.11,2.4,0Z"/></g><g id="f"><path class="l" d="M14.17,74.48l9.63-4.4c.81-.37,1-1.44,.37-2.07l-5.23-5.23c-.63-.63-1.7-.44-2.07,.37l-4.4,9.63c-.49,1.08,.62,2.19,1.7,1.7Z"/></g><g id="g"><path class="l" d="M.83,44.68l9.92,3.7c.84,.31,1.73-.31,1.73-1.2v-7.39c0-.89-.89-1.51-1.73-1.2L.83,42.28c-1.11,.41-1.11,1.99,0,2.4Z"/></g><g id="h"><path class="l" d="M12.48,14.17l4.4,9.63c.37,.81,1.44,1,2.07,.37l5.23-5.23c.63-.63,.44-1.7-.37-2.07l-9.63-4.4c-1.08-.49-2.19,.62-1.7,1.7Z"/></g><g id="i"><path class="l" d="M42.28,.83l-3.7,9.92c-.31,.84,.31,1.73,1.2,1.73h7.39c.89,0,1.51-.89,1.2-1.73L44.68,.83c-.41-1.11-1.99-1.11-2.4,0Z"/></g><g id="j"><path class="l" d="M72.78,12.48l-9.63,4.4c-.81,.37-1,1.44-.37,2.07l5.23,5.23c.63,.63,1.7,.44,2.07-.37l4.4-9.63c.49-1.08-.62-2.19-1.7-1.7Z"/></g></g><g><path class="k" d="M88.98,34.15l-2.85,3.47c-1.15-.91-2.82-1.6-4.84-1.6-1.6,0-2.79,.45-2.92,1.88-.09,.96,.43,1.3,3.74,2.19,3.12,.84,7.28,1.89,7.3,6.54,.01,4.9-4.67,6.66-8.38,6.66-3.23,0-6.8-1.31-8.56-3.62l2.99-3.23c1.18,1.44,3.43,2.35,5.57,2.35,2.17,0,2.97-.93,2.99-1.98,.05-1.23-.84-1.52-3.67-2.31-4.79-1.35-7.36-2.27-7.36-6.24,0-4.85,3.87-6.74,8.34-6.74,3.26,0,5.88,1.02,7.66,2.64Z"/><path class="k" d="M108.43,45.39c0,4.37-3.25,7.9-8.27,7.9s-8.27-3.53-8.27-7.9,3.29-7.93,8.27-7.9c5.01,0,8.27,3.53,8.27,7.9Zm-8.27-3.73c-2.02,0-3.25,1.54-3.23,3.73,0,2.19,1.25,3.73,3.23,3.73s3.23-1.52,3.23-3.73-1.23-3.73-3.23-3.73h0Z"/><path class="k" d="M116.6,47.13c0,1.58,.67,2.23,1.73,2.22,.37,0,.8-.1,1.27-.27l1.13,3.1c-1.4,.7-2.9,1.11-4.26,1.11-2.68,0-4.88-1.52-4.88-5.33V31.93h5.01v15.19Z"/><path class="k" d="M139.75,45.39c0,4.4-2.65,7.9-6.48,7.9-1.63,0-3.26-.64-4.67-1.91v1.49h-5.01V31.93h5.01v7.48c1.4-1.26,3.06-1.91,4.59-1.91,3.94-.02,6.57,3.5,6.57,7.9Zm-5.03,0c.01-2.24-1.01-3.81-2.73-3.81-1.07,0-2.36,.51-3.4,1.53v4.57c1.04,1.02,2.33,1.53,3.4,1.53,1.72,0,2.74-1.58,2.73-3.81Z"/><path class="k" d="M147.89,33.68c0,1.54-1.3,2.78-2.9,2.78s-2.89-1.25-2.89-2.78,1.3-2.78,2.89-2.78,2.9,1.25,2.9,2.78Zm-5.4,19.19v-14.95h5.01v14.95h-5.01Z"/><path class="k" d="M155.57,47.13c0,1.58,.67,2.23,1.73,2.22,.37,0,.8-.1,1.27-.27l1.13,3.1c-1.4,.7-2.9,1.11-4.26,1.11-2.68,0-4.88-1.52-4.88-5.33V31.93h5.01v15.19Z"/><path class="k" d="M176.02,45.88c0,.23,0,.47-.02,.71h-10.04c.01,.07,.03,.14,.04,.21,.4,1.75,1.62,2.59,3.27,2.59,1.33,0,2.86-.46,4.4-1.17l1.14,3.06c-1.66,1.27-3.78,2.01-6.11,2.01-4.76,0-7.9-3.53-7.9-7.9s3.09-7.9,7.78-7.9c4.58,0,7.47,3.14,7.43,8.38Zm-10.04-2.03h5.18c-.2-1.52-.85-2.48-2.47-2.48-1.47,0-2.38,.97-2.71,2.48Z"/><path class="k" d="M190.06,37.49l-.8,4.56c-.15-.01-.31-.02-.48-.02-1.6,0-3.41,.63-4.95,1.86v8.98h-5.01v-14.95h5.01v2.06c1.73-1.64,3.92-2.49,5.83-2.49,.13,0,.27,0,.4,.01Z"/><path class="k" d="M214.43,52.87l-1.31-3.78h-7.67l-1.31,3.78h-5.72l8.17-20.94h5.39l8.17,20.94h-5.72Zm-2.77-8.12l-2.37-6.81-2.37,6.81h4.74Z"/><path class="k" d="M232.03,37.5c3.94-.02,6.57,3.5,6.57,7.9,0,4.55-2.75,7.91-6.59,7.9-1.5,0-3.16-.63-4.57-1.88v7.44h-5.01v-20.94h5.01v1.49c1.4-1.26,3.06-1.91,4.59-1.91h0Zm1.54,7.9c.01-2.24-1.01-3.81-2.73-3.81-1.07,0-2.36,.51-3.4,1.53v4.54c1.05,1.02,2.3,1.59,3.4,1.58,1.65,0,2.74-1.47,2.73-3.83Z"/><path class="k" d="M257.49,34.15l-2.85,3.47c-1.15-.91-2.82-1.6-4.84-1.6-1.6,0-2.79,.45-2.92,1.88-.09,.96,.42,1.3,3.74,2.19,3.12,.84,7.28,1.89,7.3,6.54,.01,4.9-4.67,6.66-8.38,6.66-3.23,0-6.8-1.31-8.56-3.62l2.99-3.23c1.18,1.44,3.43,2.35,5.57,2.35,2.17,0,2.97-.93,2.99-1.98,.05-1.23-.84-1.52-3.67-2.31-4.79-1.35-7.36-2.27-7.36-6.24,0-4.85,3.87-6.74,8.34-6.74,3.25,0,5.88,1.02,7.66,2.64Z"/></g></g></g></svg>