<svg xmlns="http://www.w3.org/2000/svg" viewBox="0 0 259.07 86.95"><defs><style>.cls-1,.cls-3{fill:#2fac66;}.cls-2{fill:#62b785;}.cls-3{font-size:29.91px;font-family:Halcom-ExtraBold, Halcom;font-weight:800;}.cls-4{letter-spacing:-0.05em;}</style></defs><g id="Lag_2" data-name="Lag 2"><g id="Lag_2-2" data-name="Lag 2"><rect class="cls-1" x="54.04" y="44.29" width="8.15" height="17.15" rx="1.53"/><rect class="cls-1" x="24.52" y="44.29" width="8.15" height="17.15" rx="1.54"/><path class="cls-1" d="M63.68,40.29a3,3,0,0,0-3-3H26a3,3,0,0,0-3,3L21.44,51.67a3,3,0,0,0,3,3.06H62.28a3,3,0,0,0,3-3.06ZM27.6,42.16h-.4a1.59,1.59,0,1,1,0-3.17h.4a1.59,1.59,0,1,1,0,3.17Zm22.34,8.3a1.11,1.11,0,0,1-1.11,1.11H37.88a1.11,1.11,0,0,1-1.11-1.11v-1a1.11,1.11,0,0,1,1.11-1.11H48.83a1.11,1.11,0,0,1,1.11,1.11Zm9.57-8.3h-.4a1.59,1.59,0,0,1,0-3.17h.4a1.59,1.59,0,1,1,0,3.17Z" transform="translate(0)"/><path class="cls-1" d="M28.17,37.9l1-10.19c.14-1.47,1-2.58,2.07-2.58H55.5c1,0,1.93,1.11,2.07,2.58l1,10.19h3L60.14,25.08a2.75,2.75,0,0,0-2.45-2.7H29a2.74,2.74,0,0,0-2.44,2.7L25.2,37.9Z" transform="translate(0)"/><g id="_Radial_gentagelse_" data-name="&lt;Radial gentagelse&gt;"><path class="cls-2" d="M74.48,72.78l-4.41-9.63A1.27,1.27,0,0,0,68,62.78L62.78,68a1.28,1.28,0,0,0,.37,2.07l9.63,4.4A1.28,1.28,0,0,0,74.48,72.78Z" transform="translate(0)"/></g><g id="_Radial_gentagelse_2" data-name="&lt;Radial gentagelse&gt;"><path class="cls-2" d="M44.68,86.12l3.69-9.92a1.28,1.28,0,0,0-1.2-1.73H39.78a1.28,1.28,0,0,0-1.2,1.73l3.7,9.92A1.28,1.28,0,0,0,44.68,86.12Z" transform="translate(0)"/></g><g id="_Radial_gentagelse_3" data-name="&lt;Radial gentagelse&gt;"><path class="cls-2" d="M14.17,74.48l9.63-4.41A1.27,1.27,0,0,0,24.17,68L19,62.78a1.28,1.28,0,0,0-2.07.37l-4.4,9.63A1.28,1.28,0,0,0,14.17,74.48Z" transform="translate(0)"/></g><g id="_Radial_gentagelse_4" data-name="&lt;Radial gentagelse&gt;"><path class="cls-2" d="M.83,44.68l9.92,3.69a1.28,1.28,0,0,0,1.73-1.2V39.78a1.28,1.28,0,0,0-1.73-1.2L.83,42.28A1.28,1.28,0,0,0,.83,44.68Z" transform="translate(0)"/></g><g id="_Radial_gentagelse_5" data-name="&lt;Radial gentagelse&gt;"><path class="cls-2" d="M12.48,14.17l4.4,9.63a1.28,1.28,0,0,0,2.07.37L24.17,19a1.28,1.28,0,0,0-.37-2.07l-9.63-4.41A1.28,1.28,0,0,0,12.48,14.17Z" transform="translate(0)"/></g><g id="_Radial_gentagelse_6" data-name="&lt;Radial gentagelse&gt;"><path class="cls-2" d="M42.28.83l-3.7,9.92a1.28,1.28,0,0,0,1.2,1.73h7.39a1.28,1.28,0,0,0,1.2-1.73L44.68.83A1.28,1.28,0,0,0,42.28.83Z" transform="translate(0)"/></g><g id="_Radial_gentagelse_7" data-name="&lt;Radial gentagelse&gt;"><path class="cls-2" d="M72.78,12.48l-9.63,4.4A1.28,1.28,0,0,0,62.78,19L68,24.17a1.28,1.28,0,0,0,2.07-.37l4.4-9.63A1.28,1.28,0,0,0,72.78,12.48Z" transform="translate(0)"/></g><text class="cls-3" transform="translate(71.42 52.87)">Solbi<tspan class="cls-4" x="77.32" y="0">l</tspan><tspan x="88.06" y="0">er ApS</tspan></text></g></g></svg>