<?xml version="1.0" encoding="UTF-8"?><svg xmlns="http://www.w3.org/2000/svg" viewBox="0 0 320 270"><defs><style>.d{fill:#fff;}</style></defs><g id="a"/><g id="b"><g id="c"><g><path class="d" d="M51.21,150H225c8.28,0,15-6.72,15-15s-6.72-15-15-15H51.21l19.39-19.39c5.86-5.86,5.86-15.35,0-21.21-5.86-5.86-15.35-5.86-21.21,0L4.39,124.39c-.35,.35-.68,.72-1,1.1-.14,.17-.26,.34-.38,.51-.16,.22-.34,.43-.49,.66-.14,.21-.26,.43-.39,.64-.12,.21-.25,.41-.37,.62-.12,.22-.22,.45-.32,.67-.1,.22-.21,.43-.31,.66-.09,.22-.16,.44-.24,.66-.09,.24-.18,.48-.25,.72-.07,.22-.12,.45-.17,.67-.06,.25-.13,.5-.18,.75-.05,.26-.08,.52-.12,.78-.03,.22-.08,.44-.1,.67-.05,.48-.07,.97-.07,1.46v.04c0,.49,.03,.97,.07,1.46,.02,.22,.06,.44,.09,.66,.04,.26,.07,.53,.12,.79,.05,.25,.12,.5,.18,.74,.06,.23,.11,.46,.18,.68,.07,.24,.16,.47,.25,.71,.08,.23,.15,.45,.25,.68,.09,.22,.2,.43,.3,.65,.11,.23,.21,.46,.33,.68,.11,.21,.24,.4,.35,.6,.13,.22,.26,.44,.4,.66,.15,.22,.31,.42,.47,.63,.14,.18,.26,.37,.41,.54,.3,.36,.62,.71,.95,1.05,.02,.02,.03,.03,.05,.05l45,45c2.93,2.93,6.77,4.39,10.61,4.39,3.84,0,7.68-1.46,10.61-4.39,5.86-5.86,5.86-15.35,0-21.21l-19.39-19.4Z"/><path class="d" d="M305,0H115c-8.28,0-15,6.72-15,15v60c0,8.28,6.72,15,15,15s15-6.72,15-15V30h160V240H130v-45c0-8.28-6.72-15-15-15s-15,6.72-15,15v60c0,8.28,6.72,15,15,15h190c8.28,0,15-6.72,15-15V15c0-8.28-6.72-15-15-15Z"/></g></g></g></svg>