<svg xmlns="http://www.w3.org/2000/svg" viewBox="0 0 57.04 58.42"><defs><style>.cls-1{fill:#fff;}</style></defs><g id="Lag_2" data-name="Lag 2"><g id="Lag_5" data-name="Lag 5"><rect class="cls-1" x="13.23" width="30.59" height="12.82" rx="2.5"/><path class="cls-1" d="M52.46,14.82H4.58C2.05,14.82,0,17.18,0,20.08V41.17c0,2.91,2.05,5.26,4.58,5.26H8a3.37,3.37,0,0,0,3.14-3.56V36.31a2.72,2.72,0,0,1,2.53-2.87H43.38a2.72,2.72,0,0,1,2.53,2.87v6.56A3.36,3.36,0,0,0,49,46.43h3.42C55,46.43,57,44.08,57,41.17V20.08C57,17.18,55,14.82,52.46,14.82Z"/><path class="cls-1" d="M41.32,35.44H15.73a2.5,2.5,0,0,0-2.5,2.5v18a2.5,2.5,0,0,0,2.5,2.5H41.32a2.5,2.5,0,0,0,2.5-2.5v-18A2.5,2.5,0,0,0,41.32,35.44ZM39.83,55.2H16.75V53H39.83Zm0-5.18H16.75V47.84H39.83Zm0-5.13H16.75V42.71H39.83Zm0-5.13H16.75V37.58H39.83Z"/></g></g></svg>